<svg version="1.1" id="Layer_1" xmlns="http://www.w3.org/2000/svg" xmlns:xlink="http://www.w3.org/1999/xlink" x="0px" y="0px"
	 width="100%" viewBox="0 0 978 443" enable-background="new 0 0 978 443" xml:space="preserve">
<path fill="#0D98C7" opacity="1.000000" stroke="none" 
	d="
M754.000000,444.000000 
	C502.666656,444.000000 251.833328,444.000000 1.000000,444.000000 
	C1.000000,296.333344 1.000000,148.666672 1.000000,1.000000 
	C327.000000,1.000000 653.000000,1.000000 979.000000,1.000000 
	C979.000000,148.666672 979.000000,296.333344 979.000000,444.000000 
	C904.166687,444.000000 829.333313,444.000000 754.000000,444.000000 
M429.916901,229.496231 
	C393.831451,244.988113 356.270660,254.693466 317.079834,257.526520 
	C307.248138,258.237274 297.305359,257.410950 287.413605,257.291016 
	C287.348572,256.637604 287.283508,255.984207 287.218445,255.330811 
	C288.961456,254.529633 290.639618,253.517410 292.457214,252.959259 
	C316.608612,245.542770 340.635681,237.664169 364.993683,230.996658 
	C382.743103,226.138153 400.680420,221.199020 419.519226,222.989990 
	C423.447144,223.363403 425.694641,220.820114 426.780304,217.360199 
	C428.618927,211.500443 425.239929,206.843033 418.185944,206.262283 
	C413.241058,205.855179 408.097656,205.786865 403.247070,206.678207 
	C385.755432,209.892410 368.195099,212.952820 350.950043,217.236130 
	C327.224213,223.129150 303.651062,229.790695 281.382141,240.164261 
	C276.606842,242.388763 271.919556,245.199051 267.916321,248.593964 
	C261.395416,254.123978 261.912201,261.764099 268.896667,266.754883 
	C271.955078,268.940277 275.507599,270.933838 279.119873,271.737701 
	C286.068298,273.284027 293.193451,274.520660 300.290741,274.824402 
	C323.267944,275.807861 345.779175,272.062897 368.059113,266.897797 
	C401.439423,259.159271 433.716431,248.385376 463.364349,230.803665 
	C473.888702,224.562515 483.575562,217.197159 490.482544,206.830963 
	C501.807831,189.833649 498.747131,173.235641 481.213959,162.816757 
	C472.172180,157.443802 462.118744,153.239853 452.000763,150.307739 
	C416.188385,139.929504 379.256073,137.574326 342.220856,137.167526 
	C313.039154,136.846985 283.845367,136.600784 255.006042,131.894028 
	C238.650543,129.224716 222.451065,125.244377 206.471741,120.808372 
	C200.475220,119.143677 194.759674,115.163277 189.888336,111.078964 
	C183.797089,105.971848 183.877594,98.563889 189.713272,93.205391 
	C194.956665,88.390732 200.661240,83.918892 206.697983,80.154793 
	C235.326187,62.304195 266.343719,50.052685 299.007965,41.906731 
	C322.771423,35.980484 346.779449,32.646126 371.232208,36.991821 
	C388.574158,40.073803 403.145416,47.576164 411.380249,64.137939 
	C412.497192,66.384262 413.518646,69.544022 412.804077,71.687317 
	C409.448822,81.751343 403.049225,89.396523 392.748016,92.988693 
	C388.155060,94.590324 385.712189,97.649597 386.344238,102.245453 
	C386.979126,106.862228 390.086670,109.447571 395.217102,108.855843 
	C398.111267,108.522049 401.141876,107.614815 403.671814,106.187462 
	C413.961945,100.381889 421.750824,92.072090 426.788483,81.355690 
	C430.387634,73.699326 430.418304,66.034195 426.678711,58.249115 
	C420.068817,44.488640 410.037292,34.265095 396.200836,27.836578 
	C378.308044,19.523468 359.243744,17.330004 340.029480,19.561520 
	C295.715363,24.708086 253.437988,37.447403 213.132141,56.533360 
	C200.767334,62.388439 188.941101,69.310715 179.323105,79.312218 
	C164.715881,94.501862 165.739944,112.670708 182.550140,125.419716 
	C188.816376,130.172073 196.095169,134.023285 203.471283,136.800888 
	C231.050339,147.186279 260.081116,150.290314 289.214447,151.802780 
	C319.488983,153.374512 349.840637,153.470932 380.112915,155.074097 
	C405.419800,156.414322 430.497925,160.119843 454.671387,168.113144 
	C461.694733,170.435516 468.546692,173.790405 474.822723,177.717834 
	C481.452850,181.866837 482.567596,187.374390 478.614777,194.125900 
	C476.052551,198.502304 472.643463,202.588654 468.900970,206.029663 
	C457.735016,216.296082 444.340912,223.056213 429.916901,229.496231 
M571.686768,342.112732 
	C571.453064,340.345367 571.021912,338.578644 571.016357,336.810608 
	C570.964355,320.317505 570.924072,303.823822 571.026367,287.331177 
	C571.053589,282.945312 569.352173,280.834900 564.846497,280.985321 
	C560.686157,281.124176 556.514954,281.107666 552.353333,280.990326 
	C547.882141,280.864288 546.071777,283.001617 546.116028,287.353088 
	C546.210876,296.681610 546.144470,306.011810 546.144470,315.341309 
	C546.144348,351.992981 546.141663,388.644653 546.147095,425.296326 
	C546.148071,432.044037 547.113586,432.975586 554.000488,432.984741 
	C557.332458,432.989166 560.664490,432.998596 563.996399,432.982697 
	C569.997253,432.954041 570.975098,432.002075 570.980042,426.020752 
	C570.995239,407.528320 570.985596,389.035889 570.985657,370.543457 
	C570.985657,368.783203 570.985657,367.022949 570.985657,365.364136 
	C593.046936,365.364136 614.430603,365.364136 636.014343,365.364136 
	C636.014343,367.564240 636.014282,369.386475 636.014343,371.208740 
	C636.014465,389.701172 636.070251,408.193909 635.973877,426.685822 
	C635.950989,431.082703 637.674988,433.175842 642.170532,433.013702 
	C645.997314,432.875702 649.833008,432.993744 653.664795,432.983673 
	C660.075928,432.966858 660.975464,432.105835 660.981323,425.852631 
	C660.994690,411.525146 660.985657,397.197693 660.985657,382.870209 
	C660.985657,351.383087 660.989197,319.895966 660.982605,288.408844 
	C660.981262,281.793915 660.183167,281.027100 653.426392,281.015533 
	C649.761230,281.009247 646.089722,281.151215 642.432495,280.980560 
	C637.699402,280.759735 635.926819,282.910278 635.963867,287.552704 
	C636.094238,303.878326 636.014404,320.205597 636.014343,336.532257 
	C636.014343,338.320618 636.014343,340.108978 636.014343,342.325226 
	C614.537598,342.325226 593.590454,342.325226 571.686768,342.112732 
M29.541477,347.253815 
	C32.646152,325.340790 43.667255,309.693848 65.533203,303.437134 
	C81.163933,298.964508 96.825691,299.883881 112.107613,305.671967 
	C116.790009,307.445404 118.813370,306.528473 120.248001,301.846558 
	C121.270775,298.508789 121.871506,294.997711 123.261757,291.827637 
	C124.986145,287.895660 123.660110,286.247131 119.953621,284.899323 
	C103.284279,278.837799 86.138283,277.511322 68.779510,280.199402 
	C43.795238,284.068237 24.208820,296.343658 12.195531,319.112793 
	C3.083779,336.382568 1.100678,354.956818 4.225214,373.989105 
	C8.312409,398.885254 20.354744,418.453186 44.525360,428.299561 
	C71.744011,439.387665 99.038147,435.889984 126.041847,426.840210 
	C127.022530,426.511536 128.113052,424.680756 128.119202,423.544403 
	C128.240845,401.054596 128.315353,378.562469 127.998802,356.076447 
	C127.974777,354.369537 124.992203,351.286407 123.321884,351.242554 
	C108.671501,350.858032 94.002495,350.854156 79.352066,351.237091 
	C77.612755,351.282562 75.036331,354.063477 74.470207,356.040894 
	C73.632370,358.967346 74.335876,362.312897 74.222885,365.474274 
	C74.057701,370.095886 76.105156,372.136139 80.800179,372.031311 
	C88.403725,371.861542 96.013824,371.985596 103.811386,371.985596 
	C103.811386,385.143219 103.811386,397.741394 103.811386,410.550507 
	C94.180717,413.808716 84.385048,413.695129 74.611290,412.992157 
	C53.607666,411.481384 37.694828,398.487610 31.683300,378.303009 
	C28.736481,368.408600 28.290318,358.332489 29.541477,347.253815 
M241.823639,372.753326 
	C238.409637,368.555786 234.995636,364.358276 231.550415,360.122345 
	C231.922852,359.890503 232.623520,359.448120 233.330139,359.015381 
	C248.950912,349.449097 256.571564,333.092712 253.530472,315.656067 
	C250.404694,297.733673 239.069702,285.986145 220.353165,282.188568 
	C200.993286,278.260437 181.599182,279.795624 162.228714,282.710693 
	C158.677414,283.245117 158.054657,284.764008 158.083801,287.920135 
	C158.219116,302.578705 158.143478,317.239197 158.143478,331.899017 
	C158.143494,363.217712 158.137115,394.536407 158.149368,425.855103 
	C158.151672,431.715515 159.370575,432.948425 165.057800,432.981964 
	C168.722610,433.003571 172.387756,433.001251 176.052612,432.982910 
	C182.003937,432.953186 182.976044,431.986603 182.981247,425.966583 
	C182.995834,409.141113 182.986374,392.315674 182.986404,375.490204 
	C182.986404,373.735199 182.986404,371.980164 182.986404,369.986420 
	C186.347687,369.986420 188.997177,369.986359 191.646667,369.986420 
	C212.885132,369.986816 219.327057,375.130127 224.066971,395.872955 
	C224.103973,396.034912 224.102051,396.206421 224.145187,396.366211 
	C227.047470,407.114227 229.966385,417.857788 232.849167,428.611023 
	C233.760315,432.009827 235.714691,433.355927 239.379074,433.072723 
	C244.015915,432.714386 248.702881,433.059143 253.365372,432.962372 
	C257.384094,432.878967 259.070953,430.226715 257.913269,426.371613 
	C255.810776,419.370270 253.870590,412.320221 251.780014,405.315186 
	C248.603897,394.672791 245.357193,384.051483 241.823639,372.753326 
M300.469147,345.969879 
	C296.160583,358.724579 291.860687,371.482178 287.541199,384.233154 
	C282.848358,398.086121 278.113434,411.924866 273.448700,425.787231 
	C272.031799,429.997955 273.502197,432.836517 277.299286,432.935822 
	C283.765289,433.104950 290.238953,432.982361 296.883392,432.982361 
	C301.601715,418.671631 306.291626,404.651306 310.804474,390.574158 
	C311.632050,387.992554 312.672760,386.869751 315.608093,386.908905 
	C328.927704,387.086700 342.252075,387.074524 355.572205,386.917664 
	C358.462189,386.883636 359.600464,387.937714 360.433319,390.573456 
	C363.187378,399.289215 366.177673,407.931305 369.148834,416.577087 
	C370.979065,421.902802 371.474701,429.319366 375.240875,431.902588 
	C379.254761,434.655701 386.415955,432.901733 392.204742,432.964966 
	C399.229736,433.041656 400.584351,431.149078 398.383820,424.664978 
	C388.181641,394.603851 377.992371,364.538330 367.773834,334.482758 
	C361.737823,316.729095 355.655945,298.990967 349.515625,281.014374 
	C341.654297,281.014374 334.005066,281.170532 326.367737,280.937500 
	C323.315033,280.844391 322.048126,281.959961 321.124207,284.746826 
	C314.429504,304.940643 307.583069,325.084137 300.469147,345.969879 
M490.325256,370.902863 
	C491.687225,370.281372 493.065674,369.693451 494.408691,369.033386 
	C513.046570,359.873474 522.426270,341.592773 519.754211,319.658081 
	C517.365234,300.047150 504.849518,285.860535 484.258698,282.390625 
	C471.756683,280.283875 458.769653,280.672577 446.000946,280.680115 
	C438.794800,280.684357 431.589539,282.188416 424.143463,283.044556 
	C424.143463,285.629303 424.143494,287.442719 424.143494,289.256134 
	C424.143494,334.414124 424.143433,379.572113 424.143524,424.730103 
	C424.143524,425.563263 424.151733,426.396515 424.144440,427.229614 
	C424.110291,431.127014 426.003693,433.042297 429.936188,432.995483 
	C433.934845,432.947876 437.934570,432.998657 441.933746,432.983337 
	C447.973877,432.960175 448.972992,432.004059 448.980255,426.082153 
	C448.998627,411.085052 448.986450,396.087921 448.986481,381.090820 
	C448.986481,379.336304 448.986450,377.581818 448.986450,375.647614 
	C463.270020,376.449707 476.715210,376.227875 490.325256,370.902863 
M946.208801,302.008057 
	C950.121216,303.389099 954.067139,304.683197 957.935608,306.178101 
	C961.154480,307.421997 963.576416,306.622620 964.752930,303.461670 
	C966.654724,298.352356 968.244019,293.126709 969.932556,288.048615 
	C951.108276,274.978394 915.816345,276.283875 898.514893,290.478394 
	C879.346313,306.204742 878.710754,335.474152 898.026794,351.070160 
	C905.253479,356.905029 914.330261,360.481293 922.659424,364.906891 
	C928.658142,368.094269 935.249573,370.365112 940.747009,374.226044 
	C944.295654,376.718323 947.521729,380.965454 948.852966,385.085175 
	C953.501892,399.471527 944.007812,411.607483 927.738953,413.072540 
	C915.446228,414.179565 903.938171,411.578766 893.031311,405.934845 
	C888.723328,403.705658 886.343506,404.750519 884.882996,409.376709 
	C883.731995,413.022247 882.807556,416.751373 881.444763,420.314209 
	C880.318115,423.259583 881.080383,424.917511 883.858337,426.224823 
	C906.216736,436.746643 929.136169,439.215302 951.769348,428.268829 
	C980.929382,414.165619 983.897461,374.332397 957.430664,355.729370 
	C950.577759,350.912598 942.466003,347.883423 934.921021,344.055908 
	C929.152100,341.129364 923.125916,338.624817 917.647156,335.233215 
	C910.992371,331.113647 907.999939,324.674133 909.284302,316.839264 
	C910.610962,308.746704 915.767517,303.311920 923.631592,302.132477 
	C930.729004,301.068085 938.109558,301.891724 946.208801,302.008057 
M788.550354,287.055145 
	C768.192505,297.143616 755.545837,313.408051 749.843140,335.274567 
	C746.512512,348.045776 746.037292,360.980072 748.151794,373.924591 
	C752.858521,402.738190 768.379517,422.685150 796.761108,431.521667 
	C809.355286,435.442871 822.319031,435.727600 835.357605,434.272797 
	C845.124512,433.182983 854.734009,431.560089 863.741699,426.581726 
	C862.469177,421.709839 861.140137,417.096497 860.079590,412.422241 
	C859.100891,408.108307 856.495422,407.043427 852.699158,408.482758 
	C842.394226,412.389771 831.723999,413.515747 820.801697,413.049164 
	C798.273682,412.086853 781.239624,398.972504 775.377563,377.573273 
	C771.459900,363.271729 771.642517,348.828552 776.245667,334.718262 
	C782.056213,316.906799 794.486877,305.981171 812.779785,302.185547 
	C825.922302,299.458588 838.954773,300.500824 851.610535,305.211853 
	C856.393677,306.992371 858.415833,306.100739 859.827454,301.434296 
	C861.261902,296.692596 862.581055,291.916016 864.164612,286.411163 
	C838.864868,276.529724 814.077576,275.999176 788.550354,287.055145 
M568.700073,159.802689 
	C561.470337,144.555450 550.385071,142.537811 538.574036,154.722061 
	C533.849854,159.595535 529.977295,165.296509 525.741638,170.640289 
	C524.698669,171.956146 523.752380,173.348587 522.006226,175.740631 
	C521.275574,161.266998 520.216858,148.309570 520.043030,135.340302 
	C519.533691,97.353821 519.379761,59.362587 519.073303,21.373323 
	C519.057190,19.377575 519.295227,17.273348 518.755005,15.411057 
	C517.725281,11.861279 515.614319,9.007235 511.432983,9.074985 
	C507.597382,9.137134 505.850769,11.905983 505.196320,15.173855 
	C504.546997,18.416178 504.151459,21.776600 504.188812,25.079077 
	C504.759613,75.561470 505.378693,126.043457 506.135315,176.523315 
	C506.196960,180.636780 507.086456,184.794113 508.041656,188.824310 
	C509.372437,194.438995 511.332062,200.103363 517.697205,201.688980 
	C524.237305,203.318161 528.467468,198.862656 531.871094,194.296295 
	C536.837280,187.633606 541.188965,180.515244 545.883545,173.646469 
	C547.792664,170.853226 549.914185,168.205139 552.531860,164.696503 
	C554.732300,170.163559 556.474731,174.465775 558.196777,178.776184 
	C563.050110,190.924393 571.322754,199.873276 583.197815,205.415192 
	C589.172424,208.203461 594.158020,207.197372 596.347412,202.875229 
	C598.789429,198.054413 596.584534,193.918259 591.309692,189.983932 
	C585.930298,185.971573 580.666809,181.421280 576.603699,176.143372 
	C573.136108,171.639084 571.443054,165.768707 568.700073,159.802689 
M650.537292,190.969772 
	C663.242981,187.744339 676.110107,185.031860 688.594177,181.102219 
	C696.152344,178.723099 698.418274,173.760895 696.322083,168.834747 
	C694.421997,164.369553 690.283875,163.614685 682.864807,166.113342 
	C663.176941,172.744034 642.959167,176.519653 622.167664,176.959457 
	C619.437439,177.017197 616.694214,176.461288 613.957031,176.189590 
	C613.744873,175.743790 613.532715,175.297974 613.320557,174.852173 
	C615.440979,172.944702 617.284302,170.477188 619.745850,169.259201 
	C623.574707,167.364624 627.740356,165.484360 631.910217,165.067078 
	C645.814270,163.675720 659.790100,163.018890 673.725342,161.915070 
	C680.515564,161.377213 687.324158,160.754227 694.032593,159.624084 
	C697.817017,158.986511 701.648621,157.251923 702.400085,152.792130 
	C703.182983,148.145599 700.690918,144.586945 696.918091,142.401917 
	C693.215332,140.257462 689.208923,138.325943 685.087585,137.266434 
	C659.754150,130.753815 633.883362,131.712158 608.080139,132.407593 
	C602.216980,132.565628 599.553650,136.191696 599.883911,141.594284 
	C600.199402,146.754074 602.857056,148.841354 609.087402,149.001419 
	C617.641174,149.221191 626.192871,149.521347 634.745422,149.787064 
	C631.359436,151.581100 627.939636,152.247528 624.614319,153.232742 
	C616.423645,155.659439 608.414307,158.557846 602.453003,165.098114 
	C597.797546,170.205704 595.586731,176.249069 597.668884,183.049393 
	C599.686890,189.640274 605.366394,191.842880 611.485657,192.994095 
	C624.357849,195.415741 637.021606,193.229279 650.537292,190.969772 
M719.985901,286.909851 
	C720.179626,282.673859 718.087280,280.864777 713.931641,280.990753 
	C710.271667,281.101715 706.605652,281.009430 702.942261,281.014618 
	C696.117126,281.024292 695.146790,281.975433 695.145752,288.753906 
	C695.140564,323.389465 695.143311,358.025055 695.143372,392.660614 
	C695.143433,403.983795 695.204712,415.307434 695.113403,426.629883 
	C695.078369,430.974335 696.848694,433.145508 701.329651,433.008270 
	C704.989624,432.896179 708.655701,432.990479 712.319092,432.985382 
	C719.274292,432.975708 719.984497,432.262054 719.984924,425.206635 
	C719.987854,379.414398 719.986389,333.622192 719.985901,286.909851 
M733.657410,155.857254 
	C732.149170,152.537491 730.953979,149.025620 729.061340,145.941757 
	C726.008179,140.966858 721.583740,139.694901 717.151306,141.958069 
	C713.144287,144.004013 711.359070,149.297440 713.716980,154.162842 
	C719.356201,165.799164 720.748047,178.346649 722.142151,190.906845 
	C722.801575,196.848053 722.926941,202.852982 723.706726,208.774734 
	C724.193542,212.471619 726.361389,215.297165 730.374268,215.891098 
	C734.471924,216.497589 737.674072,214.658707 739.519653,211.173447 
	C741.053528,208.276764 742.086182,205.057358 742.953735,201.875381 
	C746.147095,190.163437 748.876038,178.257690 755.962097,168.090363 
	C761.193909,160.583557 764.229370,160.469589 770.152466,167.235092 
	C776.617615,174.619858 782.573547,182.495575 789.461548,189.454453 
	C799.753418,199.852188 812.195190,206.148941 827.251038,206.064545 
	C833.402344,206.030045 836.533447,203.536026 837.026855,198.424438 
	C837.596863,192.519089 835.044678,188.834778 828.854309,188.059540 
	C814.510071,186.263107 803.237305,179.925507 794.809204,167.910507 
	C790.156799,161.278061 784.604248,155.131699 778.720886,149.541519 
	C769.493835,140.774277 758.792297,140.684677 749.165588,149.063675 
	C745.338867,152.394379 742.445557,156.811386 739.214661,160.804504 
	C738.212769,162.042679 737.498657,163.513626 736.362854,165.345718 
	C735.416748,162.007492 734.651428,159.307159 733.657410,155.857254 
z"/>
<path fill="#FBFDFE" opacity="1.000000" stroke="none" 
	d="
M430.260254,229.331024 
	C444.340912,223.056213 457.735016,216.296082 468.900970,206.029663 
	C472.643463,202.588654 476.052551,198.502304 478.614777,194.125900 
	C482.567596,187.374390 481.452850,181.866837 474.822723,177.717834 
	C468.546692,173.790405 461.694733,170.435516 454.671387,168.113144 
	C430.497925,160.119843 405.419800,156.414322 380.112915,155.074097 
	C349.840637,153.470932 319.488983,153.374512 289.214447,151.802780 
	C260.081116,150.290314 231.050339,147.186279 203.471283,136.800888 
	C196.095169,134.023285 188.816376,130.172073 182.550140,125.419716 
	C165.739944,112.670708 164.715881,94.501862 179.323105,79.312218 
	C188.941101,69.310715 200.767334,62.388439 213.132141,56.533360 
	C253.437988,37.447403 295.715363,24.708086 340.029480,19.561520 
	C359.243744,17.330004 378.308044,19.523468 396.200836,27.836578 
	C410.037292,34.265095 420.068817,44.488640 426.678711,58.249115 
	C430.418304,66.034195 430.387634,73.699326 426.788483,81.355690 
	C421.750824,92.072090 413.961945,100.381889 403.671814,106.187462 
	C401.141876,107.614815 398.111267,108.522049 395.217102,108.855843 
	C390.086670,109.447571 386.979126,106.862228 386.344238,102.245453 
	C385.712189,97.649597 388.155060,94.590324 392.748016,92.988693 
	C403.049225,89.396523 409.448822,81.751343 412.804077,71.687317 
	C413.518646,69.544022 412.497192,66.384262 411.380249,64.137939 
	C403.145416,47.576164 388.574158,40.073803 371.232208,36.991821 
	C346.779449,32.646126 322.771423,35.980484 299.007965,41.906731 
	C266.343719,50.052685 235.326187,62.304195 206.697983,80.154793 
	C200.661240,83.918892 194.956665,88.390732 189.713272,93.205391 
	C183.877594,98.563889 183.797089,105.971848 189.888336,111.078964 
	C194.759674,115.163277 200.475220,119.143677 206.471741,120.808372 
	C222.451065,125.244377 238.650543,129.224716 255.006042,131.894028 
	C283.845367,136.600784 313.039154,136.846985 342.220856,137.167526 
	C379.256073,137.574326 416.188385,139.929504 452.000763,150.307739 
	C462.118744,153.239853 472.172180,157.443802 481.213959,162.816757 
	C498.747131,173.235641 501.807831,189.833649 490.482544,206.830963 
	C483.575562,217.197159 473.888702,224.562515 463.364349,230.803665 
	C433.716431,248.385376 401.439423,259.159271 368.059113,266.897797 
	C345.779175,272.062897 323.267944,275.807861 300.290741,274.824402 
	C293.193451,274.520660 286.068298,273.284027 279.119873,271.737701 
	C275.507599,270.933838 271.955078,268.940277 268.896667,266.754883 
	C261.912201,261.764099 261.395416,254.123978 267.916321,248.593964 
	C271.919556,245.199051 276.606842,242.388763 281.382141,240.164261 
	C303.651062,229.790695 327.224213,223.129150 350.950043,217.236130 
	C368.195099,212.952820 385.755432,209.892410 403.247070,206.678207 
	C408.097656,205.786865 413.241058,205.855179 418.185944,206.262283 
	C425.239929,206.843033 428.618927,211.500443 426.780304,217.360199 
	C425.694641,220.820114 423.447144,223.363403 419.519226,222.989990 
	C400.680420,221.199020 382.743103,226.138153 364.993683,230.996658 
	C340.635681,237.664169 316.608612,245.542770 292.457214,252.959259 
	C290.639618,253.517410 288.961456,254.529633 287.218445,255.330811 
	C287.283508,255.984207 287.348572,256.637604 287.413605,257.291016 
	C297.305359,257.410950 307.248138,258.237274 317.079834,257.526520 
	C356.270660,254.693466 393.831451,244.988113 430.260254,229.331024 
z"/>
<path fill="#FDFEFE" opacity="1.000000" stroke="none" 
	d="
M572.165039,342.218994 
	C593.590454,342.325226 614.537598,342.325226 636.014343,342.325226 
	C636.014343,340.108978 636.014343,338.320618 636.014343,336.532257 
	C636.014404,320.205597 636.094238,303.878326 635.963867,287.552704 
	C635.926819,282.910278 637.699402,280.759735 642.432495,280.980560 
	C646.089722,281.151215 649.761230,281.009247 653.426392,281.015533 
	C660.183167,281.027100 660.981262,281.793915 660.982605,288.408844 
	C660.989197,319.895966 660.985657,351.383087 660.985657,382.870209 
	C660.985657,397.197693 660.994690,411.525146 660.981323,425.852631 
	C660.975464,432.105835 660.075928,432.966858 653.664795,432.983673 
	C649.833008,432.993744 645.997314,432.875702 642.170532,433.013702 
	C637.674988,433.175842 635.950989,431.082703 635.973877,426.685822 
	C636.070251,408.193909 636.014465,389.701172 636.014343,371.208740 
	C636.014282,369.386475 636.014343,367.564240 636.014343,365.364136 
	C614.430603,365.364136 593.046936,365.364136 570.985657,365.364136 
	C570.985657,367.022949 570.985657,368.783203 570.985657,370.543457 
	C570.985596,389.035889 570.995239,407.528320 570.980042,426.020752 
	C570.975098,432.002075 569.997253,432.954041 563.996399,432.982697 
	C560.664490,432.998596 557.332458,432.989166 554.000488,432.984741 
	C547.113586,432.975586 546.148071,432.044037 546.147095,425.296326 
	C546.141663,388.644653 546.144348,351.992981 546.144470,315.341309 
	C546.144470,306.011810 546.210876,296.681610 546.116028,287.353088 
	C546.071777,283.001617 547.882141,280.864288 552.353333,280.990326 
	C556.514954,281.107666 560.686157,281.124176 564.846497,280.985321 
	C569.352173,280.834900 571.053589,282.945312 571.026367,287.331177 
	C570.924072,303.823822 570.964355,320.317505 571.016357,336.810608 
	C571.021912,338.578644 571.453064,340.345367 572.165039,342.218994 
z"/>
<path fill="#FDFEFE" opacity="1.000000" stroke="none" 
	d="
M29.452950,347.694092 
	C28.290318,358.332489 28.736481,368.408600 31.683300,378.303009 
	C37.694828,398.487610 53.607666,411.481384 74.611290,412.992157 
	C84.385048,413.695129 94.180717,413.808716 103.811386,410.550507 
	C103.811386,397.741394 103.811386,385.143219 103.811386,371.985596 
	C96.013824,371.985596 88.403725,371.861542 80.800179,372.031311 
	C76.105156,372.136139 74.057701,370.095886 74.222885,365.474274 
	C74.335876,362.312897 73.632370,358.967346 74.470207,356.040894 
	C75.036331,354.063477 77.612755,351.282562 79.352066,351.237091 
	C94.002495,350.854156 108.671501,350.858032 123.321884,351.242554 
	C124.992203,351.286407 127.974777,354.369537 127.998802,356.076447 
	C128.315353,378.562469 128.240845,401.054596 128.119202,423.544403 
	C128.113052,424.680756 127.022530,426.511536 126.041847,426.840210 
	C99.038147,435.889984 71.744011,439.387665 44.525360,428.299561 
	C20.354744,418.453186 8.312409,398.885254 4.225214,373.989105 
	C1.100678,354.956818 3.083779,336.382568 12.195531,319.112793 
	C24.208820,296.343658 43.795238,284.068237 68.779510,280.199402 
	C86.138283,277.511322 103.284279,278.837799 119.953621,284.899323 
	C123.660110,286.247131 124.986145,287.895660 123.261757,291.827637 
	C121.871506,294.997711 121.270775,298.508789 120.248001,301.846558 
	C118.813370,306.528473 116.790009,307.445404 112.107613,305.671967 
	C96.825691,299.883881 81.163933,298.964508 65.533203,303.437134 
	C43.667255,309.693848 32.646152,325.340790 29.452950,347.694092 
z"/>
<path fill="#FCFEFE" opacity="1.000000" stroke="none" 
	d="
M241.982056,373.087280 
	C245.357193,384.051483 248.603897,394.672791 251.780014,405.315186 
	C253.870590,412.320221 255.810776,419.370270 257.913269,426.371613 
	C259.070953,430.226715 257.384094,432.878967 253.365372,432.962372 
	C248.702881,433.059143 244.015915,432.714386 239.379074,433.072723 
	C235.714691,433.355927 233.760315,432.009827 232.849167,428.611023 
	C229.966385,417.857788 227.047470,407.114227 224.145187,396.366211 
	C224.102051,396.206421 224.103973,396.034912 224.066971,395.872955 
	C219.327057,375.130127 212.885132,369.986816 191.646667,369.986420 
	C188.997177,369.986359 186.347687,369.986420 182.986404,369.986420 
	C182.986404,371.980164 182.986404,373.735199 182.986404,375.490204 
	C182.986374,392.315674 182.995834,409.141113 182.981247,425.966583 
	C182.976044,431.986603 182.003937,432.953186 176.052612,432.982910 
	C172.387756,433.001251 168.722610,433.003571 165.057800,432.981964 
	C159.370575,432.948425 158.151672,431.715515 158.149368,425.855103 
	C158.137115,394.536407 158.143494,363.217712 158.143478,331.899017 
	C158.143478,317.239197 158.219116,302.578705 158.083801,287.920135 
	C158.054657,284.764008 158.677414,283.245117 162.228714,282.710693 
	C181.599182,279.795624 200.993286,278.260437 220.353165,282.188568 
	C239.069702,285.986145 250.404694,297.733673 253.530472,315.656067 
	C256.571564,333.092712 248.950912,349.449097 233.330139,359.015381 
	C232.623520,359.448120 231.922852,359.890503 231.550415,360.122345 
	C234.995636,364.358276 238.409637,368.555786 241.982056,373.087280 
M203.286728,300.830566 
	C196.589951,300.949066 189.893173,301.067596 183.368820,301.183044 
	C183.368820,318.066345 183.368820,333.763855 183.368820,350.097260 
	C191.544876,349.727478 199.387161,349.918304 207.073029,348.913177 
	C223.793869,346.726532 233.012756,332.313721 227.977783,316.606903 
	C224.314667,305.179657 214.780182,302.147034 203.286728,300.830566 
z"/>
<path fill="#FCFEFE" opacity="1.000000" stroke="none" 
	d="
M300.626892,345.606720 
	C307.583069,325.084137 314.429504,304.940643 321.124207,284.746826 
	C322.048126,281.959961 323.315033,280.844391 326.367737,280.937500 
	C334.005066,281.170532 341.654297,281.014374 349.515625,281.014374 
	C355.655945,298.990967 361.737823,316.729095 367.773834,334.482758 
	C377.992371,364.538330 388.181641,394.603851 398.383820,424.664978 
	C400.584351,431.149078 399.229736,433.041656 392.204742,432.964966 
	C386.415955,432.901733 379.254761,434.655701 375.240875,431.902588 
	C371.474701,429.319366 370.979065,421.902802 369.148834,416.577087 
	C366.177673,407.931305 363.187378,399.289215 360.433319,390.573456 
	C359.600464,387.937714 358.462189,386.883636 355.572205,386.917664 
	C342.252075,387.074524 328.927704,387.086700 315.608093,386.908905 
	C312.672760,386.869751 311.632050,387.992554 310.804474,390.574158 
	C306.291626,404.651306 301.601715,418.671631 296.883392,432.982361 
	C290.238953,432.982361 283.765289,433.104950 277.299286,432.935822 
	C273.502197,432.836517 272.031799,429.997955 273.448700,425.787231 
	C278.113434,411.924866 282.848358,398.086121 287.541199,384.233154 
	C291.860687,371.482178 296.160583,358.724579 300.626892,345.606720 
M320.908447,357.456573 
	C319.998688,360.201691 319.088928,362.946808 318.094086,365.948669 
	C330.065735,365.948669 341.344513,365.948669 353.048004,365.948669 
	C347.151825,348.295288 341.358643,330.950287 335.514648,313.453125 
	C330.656555,328.031250 325.880829,342.362335 320.908447,357.456573 
z"/>
<path fill="#FCFEFE" opacity="1.000000" stroke="none" 
	d="
M489.954926,371.015869 
	C476.715210,376.227875 463.270020,376.449707 448.986450,375.647614 
	C448.986450,377.581818 448.986481,379.336304 448.986481,381.090820 
	C448.986450,396.087921 448.998627,411.085052 448.980255,426.082153 
	C448.972992,432.004059 447.973877,432.960175 441.933746,432.983337 
	C437.934570,432.998657 433.934845,432.947876 429.936188,432.995483 
	C426.003693,433.042297 424.110291,431.127014 424.144440,427.229614 
	C424.151733,426.396515 424.143524,425.563263 424.143524,424.730103 
	C424.143433,379.572113 424.143494,334.414124 424.143494,289.256134 
	C424.143494,287.442719 424.143463,285.629303 424.143463,283.044556 
	C431.589539,282.188416 438.794800,280.684357 446.000946,280.680115 
	C458.769653,280.672577 471.756683,280.283875 484.258698,282.390625 
	C504.849518,285.860535 517.365234,300.047150 519.754211,319.658081 
	C522.426270,341.592773 513.046570,359.873474 494.408691,369.033386 
	C493.065674,369.693451 491.687225,370.281372 489.954926,371.015869 
M448.984161,310.564026 
	C448.984161,325.006409 448.984161,339.448792 448.984161,353.777649 
	C461.109131,356.249359 474.030396,354.968536 482.143219,350.492096 
	C493.108002,344.441986 495.921478,334.468323 494.983521,322.904388 
	C494.167053,312.837860 488.080200,305.899963 477.565918,302.837585 
	C468.267456,300.129272 458.860413,300.548187 448.984161,302.044373 
	C448.984161,304.654266 448.984161,307.121826 448.984161,310.564026 
z"/>
<path fill="#FCFDFE" opacity="1.000000" stroke="none" 
	d="
M945.786987,301.945404 
	C938.109558,301.891724 930.729004,301.068085 923.631592,302.132477 
	C915.767517,303.311920 910.610962,308.746704 909.284302,316.839264 
	C907.999939,324.674133 910.992371,331.113647 917.647156,335.233215 
	C923.125916,338.624817 929.152100,341.129364 934.921021,344.055908 
	C942.466003,347.883423 950.577759,350.912598 957.430664,355.729370 
	C983.897461,374.332397 980.929382,414.165619 951.769348,428.268829 
	C929.136169,439.215302 906.216736,436.746643 883.858337,426.224823 
	C881.080383,424.917511 880.318115,423.259583 881.444763,420.314209 
	C882.807556,416.751373 883.731995,413.022247 884.882996,409.376709 
	C886.343506,404.750519 888.723328,403.705658 893.031311,405.934845 
	C903.938171,411.578766 915.446228,414.179565 927.738953,413.072540 
	C944.007812,411.607483 953.501892,399.471527 948.852966,385.085175 
	C947.521729,380.965454 944.295654,376.718323 940.747009,374.226044 
	C935.249573,370.365112 928.658142,368.094269 922.659424,364.906891 
	C914.330261,360.481293 905.253479,356.905029 898.026794,351.070160 
	C878.710754,335.474152 879.346313,306.204742 898.514893,290.478394 
	C915.816345,276.283875 951.108276,274.978394 969.932556,288.048615 
	C968.244019,293.126709 966.654724,298.352356 964.752930,303.461670 
	C963.576416,306.622620 961.154480,307.421997 957.935608,306.178101 
	C954.067139,304.683197 950.121216,303.389099 945.786987,301.945404 
z"/>
<path fill="#FCFDFE" opacity="1.000000" stroke="none" 
	d="
M788.896973,286.905151 
	C814.077576,275.999176 838.864868,276.529724 864.164612,286.411163 
	C862.581055,291.916016 861.261902,296.692596 859.827454,301.434296 
	C858.415833,306.100739 856.393677,306.992371 851.610535,305.211853 
	C838.954773,300.500824 825.922302,299.458588 812.779785,302.185547 
	C794.486877,305.981171 782.056213,316.906799 776.245667,334.718262 
	C771.642517,348.828552 771.459900,363.271729 775.377563,377.573273 
	C781.239624,398.972504 798.273682,412.086853 820.801697,413.049164 
	C831.723999,413.515747 842.394226,412.389771 852.699158,408.482758 
	C856.495422,407.043427 859.100891,408.108307 860.079590,412.422241 
	C861.140137,417.096497 862.469177,421.709839 863.741699,426.581726 
	C854.734009,431.560089 845.124512,433.182983 835.357605,434.272797 
	C822.319031,435.727600 809.355286,435.442871 796.761108,431.521667 
	C768.379517,422.685150 752.858521,402.738190 748.151794,373.924591 
	C746.037292,360.980072 746.512512,348.045776 749.843140,335.274567 
	C755.545837,313.408051 768.192505,297.143616 788.896973,286.905151 
z"/>
<path fill="#FBFDFE" opacity="1.000000" stroke="none" 
	d="
M568.832520,160.152649 
	C571.443054,165.768707 573.136108,171.639084 576.603699,176.143372 
	C580.666809,181.421280 585.930298,185.971573 591.309692,189.983932 
	C596.584534,193.918259 598.789429,198.054413 596.347412,202.875229 
	C594.158020,207.197372 589.172424,208.203461 583.197815,205.415192 
	C571.322754,199.873276 563.050110,190.924393 558.196777,178.776184 
	C556.474731,174.465775 554.732300,170.163559 552.531860,164.696503 
	C549.914185,168.205139 547.792664,170.853226 545.883545,173.646469 
	C541.188965,180.515244 536.837280,187.633606 531.871094,194.296295 
	C528.467468,198.862656 524.237305,203.318161 517.697205,201.688980 
	C511.332062,200.103363 509.372437,194.438995 508.041656,188.824310 
	C507.086456,184.794113 506.196960,180.636780 506.135315,176.523315 
	C505.378693,126.043457 504.759613,75.561470 504.188812,25.079077 
	C504.151459,21.776600 504.546997,18.416178 505.196320,15.173855 
	C505.850769,11.905983 507.597382,9.137134 511.432983,9.074985 
	C515.614319,9.007235 517.725281,11.861279 518.755005,15.411057 
	C519.295227,17.273348 519.057190,19.377575 519.073303,21.373323 
	C519.379761,59.362587 519.533691,97.353821 520.043030,135.340302 
	C520.216858,148.309570 521.275574,161.266998 522.006226,175.740631 
	C523.752380,173.348587 524.698669,171.956146 525.741638,170.640289 
	C529.977295,165.296509 533.849854,159.595535 538.574036,154.722061 
	C550.385071,142.537811 561.470337,144.555450 568.832520,160.152649 
z"/>
<path fill="#FCFDFE" opacity="1.000000" stroke="none" 
	d="
M650.107056,191.023514 
	C637.021606,193.229279 624.357849,195.415741 611.485657,192.994095 
	C605.366394,191.842880 599.686890,189.640274 597.668884,183.049393 
	C595.586731,176.249069 597.797546,170.205704 602.453003,165.098114 
	C608.414307,158.557846 616.423645,155.659439 624.614319,153.232742 
	C627.939636,152.247528 631.359436,151.581100 634.745422,149.787064 
	C626.192871,149.521347 617.641174,149.221191 609.087402,149.001419 
	C602.857056,148.841354 600.199402,146.754074 599.883911,141.594284 
	C599.553650,136.191696 602.216980,132.565628 608.080139,132.407593 
	C633.883362,131.712158 659.754150,130.753815 685.087585,137.266434 
	C689.208923,138.325943 693.215332,140.257462 696.918091,142.401917 
	C700.690918,144.586945 703.182983,148.145599 702.400085,152.792130 
	C701.648621,157.251923 697.817017,158.986511 694.032593,159.624084 
	C687.324158,160.754227 680.515564,161.377213 673.725342,161.915070 
	C659.790100,163.018890 645.814270,163.675720 631.910217,165.067078 
	C627.740356,165.484360 623.574707,167.364624 619.745850,169.259201 
	C617.284302,170.477188 615.440979,172.944702 613.320557,174.852173 
	C613.532715,175.297974 613.744873,175.743790 613.957031,176.189590 
	C616.694214,176.461288 619.437439,177.017197 622.167664,176.959457 
	C642.959167,176.519653 663.176941,172.744034 682.864807,166.113342 
	C690.283875,163.614685 694.421997,164.369553 696.322083,168.834747 
	C698.418274,173.760895 696.152344,178.723099 688.594177,181.102219 
	C676.110107,185.031860 663.242981,187.744339 650.107056,191.023514 
z"/>
<path fill="#FCFEFE" opacity="1.000000" stroke="none" 
	d="
M719.986145,287.369904 
	C719.986389,333.622192 719.987854,379.414398 719.984924,425.206635 
	C719.984497,432.262054 719.274292,432.975708 712.319092,432.985382 
	C708.655701,432.990479 704.989624,432.896179 701.329651,433.008270 
	C696.848694,433.145508 695.078369,430.974335 695.113403,426.629883 
	C695.204712,415.307434 695.143433,403.983795 695.143372,392.660614 
	C695.143311,358.025055 695.140564,323.389465 695.145752,288.753906 
	C695.146790,281.975433 696.117126,281.024292 702.942261,281.014618 
	C706.605652,281.009430 710.271667,281.101715 713.931641,280.990753 
	C718.087280,280.864777 720.179626,282.673859 719.986145,287.369904 
z"/>
<path fill="#FCFDFE" opacity="1.000000" stroke="none" 
	d="
M733.771729,156.232040 
	C734.651428,159.307159 735.416748,162.007492 736.362854,165.345718 
	C737.498657,163.513626 738.212769,162.042679 739.214661,160.804504 
	C742.445557,156.811386 745.338867,152.394379 749.165588,149.063675 
	C758.792297,140.684677 769.493835,140.774277 778.720886,149.541519 
	C784.604248,155.131699 790.156799,161.278061 794.809204,167.910507 
	C803.237305,179.925507 814.510071,186.263107 828.854309,188.059540 
	C835.044678,188.834778 837.596863,192.519089 837.026855,198.424438 
	C836.533447,203.536026 833.402344,206.030045 827.251038,206.064545 
	C812.195190,206.148941 799.753418,199.852188 789.461548,189.454453 
	C782.573547,182.495575 776.617615,174.619858 770.152466,167.235092 
	C764.229370,160.469589 761.193909,160.583557 755.962097,168.090363 
	C748.876038,178.257690 746.147095,190.163437 742.953735,201.875381 
	C742.086182,205.057358 741.053528,208.276764 739.519653,211.173447 
	C737.674072,214.658707 734.471924,216.497589 730.374268,215.891098 
	C726.361389,215.297165 724.193542,212.471619 723.706726,208.774734 
	C722.926941,202.852982 722.801575,196.848053 722.142151,190.906845 
	C720.748047,178.346649 719.356201,165.799164 713.716980,154.162842 
	C711.359070,149.297440 713.144287,144.004013 717.151306,141.958069 
	C721.583740,139.694901 726.008179,140.966858 729.061340,145.941757 
	C730.953979,149.025620 732.149170,152.537491 733.771729,156.232040 
z"/>
<path fill="#0E99C7" opacity="1.000000" stroke="none" 
	d="
M203.754944,300.859741 
	C214.780182,302.147034 224.314667,305.179657 227.977783,316.606903 
	C233.012756,332.313721 223.793869,346.726532 207.073029,348.913177 
	C199.387161,349.918304 191.544876,349.727478 183.368820,350.097260 
	C183.368820,333.763855 183.368820,318.066345 183.368820,301.183044 
	C189.893173,301.067596 196.589951,300.949066 203.754944,300.859741 
z"/>
<path fill="#0F99C7" opacity="1.000000" stroke="none" 
	d="
M321.006775,357.074982 
	C325.880829,342.362335 330.656555,328.031250 335.514648,313.453125 
	C341.358643,330.950287 347.151825,348.295288 353.048004,365.948669 
	C341.344513,365.948669 330.065735,365.948669 318.094086,365.948669 
	C319.088928,362.946808 319.998688,360.201691 321.006775,357.074982 
z"/>
<path fill="#0E98C7" opacity="1.000000" stroke="none" 
	d="
M448.984161,310.076691 
	C448.984161,307.121826 448.984161,304.654266 448.984161,302.044373 
	C458.860413,300.548187 468.267456,300.129272 477.565918,302.837585 
	C488.080200,305.899963 494.167053,312.837860 494.983521,322.904388 
	C495.921478,334.468323 493.108002,344.441986 482.143219,350.492096 
	C474.030396,354.968536 461.109131,356.249359 448.984161,353.777649 
	C448.984161,339.448792 448.984161,325.006409 448.984161,310.076691 
z"/>
</svg>