<svg version="1.1" id="Layer_1" xmlns="http://www.w3.org/2000/svg" xmlns:xlink="http://www.w3.org/1999/xlink" x="0px" y="0px"
	 width="100%" viewBox="0 0 978 443" enable-background="new 0 0 978 443" xml:space="preserve">
<path fill="#FEFEFE" opacity="1.000000" stroke="none" 
	d="
M754.000000,444.000000 
	C502.666656,444.000000 251.833328,444.000000 1.000000,444.000000 
	C1.000000,296.333344 1.000000,148.666672 1.000000,1.000000 
	C327.000000,1.000000 653.000000,1.000000 979.000000,1.000000 
	C979.000000,148.666672 979.000000,296.333344 979.000000,444.000000 
	C904.166687,444.000000 829.333313,444.000000 754.000000,444.000000 
M386.298859,24.084356 
	C369.440674,19.096582 352.202209,17.696739 334.889069,20.207287 
	C292.705994,26.324184 252.023331,37.918240 213.688629,56.666687 
	C202.312347,62.230503 191.879410,69.951744 181.643082,77.533470 
	C175.323456,82.214211 171.025055,88.994324 169.866562,97.201065 
	C168.004105,110.394905 174.491867,119.553696 184.470963,126.862701 
	C194.138290,133.943359 205.228348,137.998489 216.673279,141.037476 
	C250.393509,149.991257 284.919891,152.426239 319.593536,152.753876 
	C357.774078,153.114655 395.863495,154.047729 433.372101,162.134720 
	C446.534088,164.972488 459.671387,168.106613 471.446259,175.027008 
	C482.529053,181.540665 484.268463,188.826340 475.925537,198.652664 
	C470.621979,204.899231 464.100952,210.409882 457.294983,215.025330 
	C439.407410,227.155777 419.375488,234.935501 398.885590,241.382706 
	C366.547913,251.557831 333.679077,258.936768 299.464508,257.922729 
	C295.096985,257.793304 290.748535,257.022064 286.391235,256.548187 
	C289.387543,254.095139 292.353149,252.624344 295.440308,251.482239 
	C325.882996,240.219650 357.128815,231.722443 388.907379,225.306580 
	C398.100037,223.450668 407.660461,222.999969 417.070892,222.805527 
	C422.193329,222.699692 425.664062,221.439178 426.845795,216.636703 
	C427.987610,211.996353 425.751984,207.996155 420.590973,207.073624 
	C416.232635,206.294556 411.543060,205.834808 407.233673,206.581573 
	C388.750580,209.784515 370.173676,212.746979 351.970032,217.187286 
	C327.780579,223.087692 303.766998,229.909882 281.097809,240.514420 
	C276.193848,242.808487 271.414917,245.823746 267.378510,249.407913 
	C261.892456,254.279343 262.382599,261.226898 268.101959,265.825806 
	C270.769897,267.971100 273.907440,270.149139 277.147369,270.845367 
	C285.395111,272.617767 293.801422,274.504852 302.177948,274.673431 
	C333.938293,275.312714 364.650421,268.621918 394.866089,259.596375 
	C421.043610,251.777054 446.447449,241.987106 469.345306,226.697159 
	C478.552765,220.548904 486.846069,213.366394 492.279663,203.446350 
	C500.531372,188.381317 497.710327,174.070419 483.501129,164.569122 
	C476.276611,159.738281 468.154114,155.810043 459.914795,153.014862 
	C427.600464,142.052307 393.935791,139.199890 360.117859,137.885239 
	C324.194733,136.488754 288.142517,137.647308 252.448822,131.952759 
	C235.855087,129.305420 219.193390,126.870392 203.690247,120.029594 
	C198.607346,117.786743 193.611649,114.735626 189.510818,111.021950 
	C183.469864,105.551300 183.536636,98.642639 189.514633,93.134415 
	C194.744690,88.315361 200.450745,83.855888 206.476303,80.083817 
	C235.899170,61.664761 267.849182,49.225433 301.499786,41.078659 
	C324.972839,35.395851 348.685577,32.526199 372.728455,37.089409 
	C389.704163,40.311314 403.749115,48.098282 411.668121,64.266266 
	C412.874268,66.728806 413.634827,70.382538 412.710205,72.745163 
	C408.963654,82.318489 402.863983,90.003067 392.496582,93.219238 
	C387.765594,94.686890 385.776062,98.172676 386.853394,103.324554 
	C387.657867,107.171440 391.098633,109.465782 395.616730,108.748131 
	C398.041962,108.362907 400.570587,107.698517 402.697144,106.519188 
	C413.801056,100.361290 422.190033,91.602257 427.176239,79.812813 
	C430.116455,72.861053 429.973846,65.940536 426.808990,59.028702 
	C418.767975,41.467751 405.131348,30.372120 386.298859,24.084356 
M625.465271,342.766296 
	C607.368591,342.766296 589.271973,342.766296 571.151733,342.766296 
	C571.042053,341.489838 570.936829,340.833801 570.936462,340.177673 
	C570.927063,322.683899 570.866333,305.189758 570.970398,287.696594 
	C570.997498,283.132965 569.255432,280.873444 564.533875,281.043976 
	C560.706909,281.182190 556.870850,281.054657 553.039001,281.076141 
	C547.653076,281.106293 546.445251,282.341492 546.429443,287.906860 
	C546.406799,295.903931 546.423645,303.901154 546.423645,311.898315 
	C546.423645,349.884796 546.419556,387.871307 546.427979,425.857788 
	C546.429260,431.611511 547.585632,432.881042 552.803711,432.922119 
	C556.635437,432.952271 560.467773,432.949707 564.299500,432.922729 
	C569.571411,432.885651 570.914978,431.501099 570.922607,426.039215 
	C570.939819,413.710297 570.928040,401.381287 570.928040,389.052338 
	C570.928040,381.113342 570.928101,373.174347 570.928101,365.134216 
	C592.844238,365.134216 614.254639,365.134216 636.071899,365.134216 
	C636.071899,366.622070 636.071960,367.909882 636.071960,369.197723 
	C636.071960,388.190979 636.061584,407.184204 636.078491,426.177460 
	C636.083191,431.510651 637.493530,432.892853 642.838745,432.923950 
	C646.503967,432.945282 650.169495,432.937897 653.834778,432.925781 
	C659.620667,432.906677 660.918274,431.661896 660.922791,426.004120 
	C660.937134,408.010498 660.928040,390.016907 660.928040,372.023285 
	C660.928040,344.033234 660.933838,316.043213 660.923340,288.053162 
	C660.921204,282.315399 659.671448,281.096191 653.892090,281.074554 
	C650.226807,281.060822 646.561279,281.056030 642.895996,281.075714 
	C637.494141,281.104736 636.085266,282.459717 636.078979,287.765289 
	C636.059509,304.259430 636.071960,320.753540 636.071960,337.247681 
	C636.071960,339.000824 636.071899,340.753967 636.071899,342.766296 
	C632.403870,342.766296 629.426758,342.766296 625.465271,342.766296 
M241.821747,352.327942 
	C261.237122,334.475159 259.393127,291.162659 221.548080,282.713684 
	C202.005890,278.350891 182.499039,280.127472 162.952957,282.771362 
	C159.356110,283.257874 158.318054,284.496735 158.341904,288.089600 
	C158.500092,311.918396 158.423798,335.748810 158.423798,359.578674 
	C158.423798,381.242188 158.423035,402.905731 158.424194,424.569244 
	C158.424606,432.499603 158.866333,432.927338 167.017075,432.927948 
	C170.016647,432.928162 173.016266,432.940948 176.015762,432.925201 
	C181.658951,432.895538 182.920746,431.611420 182.924240,425.820496 
	C182.934586,408.656311 182.922226,391.492157 182.938461,374.327972 
	C182.939804,372.901825 183.089447,371.475769 183.173203,369.996552 
	C188.584137,369.996552 193.574768,369.879028 198.558105,370.019775 
	C210.827087,370.366333 217.648148,375.321411 221.759232,386.830109 
	C222.650742,389.325806 223.251068,391.928253 223.933838,394.495300 
	C226.878174,405.564850 229.842361,416.629425 232.714340,427.717834 
	C233.727570,431.629822 235.683838,433.518585 240.092941,433.030731 
	C244.373260,432.557159 248.748032,432.986755 253.079391,432.910858 
	C257.157623,432.839417 258.815125,430.288177 257.727783,426.420074 
	C254.764099,415.877014 251.706619,405.352356 249.098938,394.719208 
	C245.901199,381.679962 242.552460,368.840485 230.722977,360.829407 
	C234.432083,358.025391 237.874207,355.423248 241.821747,352.327942 
M58.906410,432.750824 
	C82.597870,437.228790 105.511024,434.110413 128.075653,426.004608 
	C128.075653,402.532562 128.090393,379.380737 128.060837,356.228973 
	C128.056015,352.456390 125.869064,351.034912 122.271805,351.053925 
	C111.276031,351.112122 100.279663,351.102783 89.283684,351.068390 
	C72.922104,351.017212 74.741631,349.708160 74.599884,365.801788 
	C74.560661,370.254608 76.444237,372.076752 80.895004,371.973724 
	C88.502670,371.797577 96.117363,371.925079 103.883423,371.925079 
	C103.883423,385.157135 103.883423,397.923767 103.883423,411.740051 
	C96.054291,412.403381 88.307800,413.727631 80.586823,413.592621 
	C54.096989,413.129425 36.020409,399.299438 30.705181,374.782623 
	C28.868019,366.308624 28.701052,357.227539 29.275269,348.522980 
	C30.820158,325.104004 45.851212,307.511200 68.257744,302.450775 
	C83.006401,299.119843 97.686485,300.006653 111.965897,305.328796 
	C117.006912,307.207672 118.679695,306.393097 120.222694,301.188080 
	C121.579430,296.611450 122.915932,292.028809 124.380562,287.043060 
	C121.466698,285.892944 118.922791,284.715454 116.272629,283.871643 
	C101.768616,279.253815 86.895012,278.025055 71.861938,279.978302 
	C42.579754,283.782898 20.821554,298.237793 9.224109,326.022583 
	C3.269987,340.287231 1.979192,355.335968 3.935635,370.638245 
	C7.974777,402.230225 25.747360,425.310272 58.906410,432.750824 
M308.215271,397.732513 
	C309.448517,394.151581 310.681763,390.570618 311.836853,387.216644 
	C328.013672,387.216644 343.786621,387.216644 359.436493,387.216644 
	C364.285461,401.498932 369.126923,415.453461 373.701202,429.495056 
	C374.594696,432.237793 375.808472,433.116516 378.603363,432.989166 
	C383.589233,432.761963 388.593262,432.964905 393.588959,432.913605 
	C398.405518,432.864136 400.169464,430.462036 398.614319,425.883636 
	C382.604553,378.750336 366.534058,331.637665 350.592133,284.481476 
	C349.677368,281.775665 348.447296,280.906189 345.657623,281.007904 
	C339.670135,281.226257 333.652435,281.345795 327.679779,280.976868 
	C323.875214,280.741821 322.207214,281.964630 320.997437,285.604645 
	C311.840149,313.156830 302.443390,340.629364 293.145752,368.135010 
	C286.662933,387.313416 280.209717,406.501862 273.764618,425.692963 
	C272.365631,429.858521 273.741974,432.784973 277.347961,432.877197 
	C283.801758,433.042297 290.262817,432.923706 296.701508,432.923706 
	C300.563507,421.209137 304.305298,409.859131 308.215271,397.732513 
M452.135529,375.458313 
	C464.898193,376.622711 477.433258,375.551300 489.472839,370.999756 
	C510.289246,363.130157 521.521606,345.133331 519.807739,322.807465 
	C518.138062,301.056824 505.766296,286.822510 483.757263,282.201843 
	C464.065277,278.067596 444.412079,280.454407 424.422028,283.325867 
	C424.422028,285.478912 424.422028,287.286896 424.422028,289.094879 
	C424.422028,310.753021 424.422028,332.411133 424.422028,354.069275 
	C424.422028,377.893219 424.417816,401.717194 424.424744,425.541138 
	C424.426605,432.032379 425.351074,432.921967 431.984131,432.928528 
	C435.316162,432.931824 438.648224,432.941803 441.980194,432.926178 
	C447.670166,432.899475 448.920685,431.641022 448.925079,425.860779 
	C448.936768,410.366882 448.879028,394.872559 449.012604,379.379822 
	C449.024902,377.953369 447.328796,374.888031 452.135529,375.458313 
M914.581604,412.995728 
	C907.198853,410.608795 899.736877,408.435883 892.465942,405.746735 
	C888.704285,404.355530 886.411438,404.995819 885.180725,408.763397 
	C884.047180,412.233612 883.371765,415.884491 881.941956,419.218872 
	C880.217041,423.241516 881.700806,425.244232 885.281738,426.830566 
	C905.559814,435.813690 926.295349,438.000793 947.323425,430.121124 
	C963.523987,424.050476 973.058289,411.990753 974.838562,394.714081 
	C976.634766,377.282379 970.029785,363.398407 954.923401,354.130188 
	C949.711792,350.932648 944.039673,348.472504 938.522888,345.788696 
	C931.964600,342.598206 925.074097,339.991089 918.822266,336.294495 
	C910.497131,331.371918 907.456726,323.935791 909.233459,315.607666 
	C910.838928,308.082214 917.391479,302.588867 926.387756,301.032806 
	C937.104858,299.179077 947.216370,301.255463 957.023438,305.503967 
	C961.504150,307.445007 963.408875,306.715515 964.976135,302.289001 
	C966.248962,298.693787 967.228149,294.981598 968.702759,291.474854 
	C969.958252,288.489258 969.103882,287.032806 966.273254,285.814758 
	C947.576782,277.769440 928.524963,276.286713 909.568726,284.097656 
	C894.571533,290.277313 885.662659,301.886536 884.312256,318.350708 
	C883.041260,333.848541 889.544678,345.985718 902.377686,354.326630 
	C908.861633,358.540985 916.203735,361.433105 923.149048,364.940430 
	C929.351074,368.072449 935.868591,370.725861 941.655701,374.497498 
	C949.341980,379.506897 951.221497,387.470825 949.699768,396.088623 
	C948.261169,404.235992 942.932312,409.730042 935.138794,411.529358 
	C928.794861,412.994049 922.030640,412.638947 914.581604,412.995728 
M839.561646,301.756012 
	C843.869019,302.955536 848.259216,303.924438 852.456177,305.431427 
	C855.528076,306.534332 857.955750,305.965881 858.979919,303.141876 
	C860.876038,297.913513 862.190063,292.474030 863.855347,286.748413 
	C860.177917,285.339294 857.016052,283.867249 853.705811,282.905396 
	C840.918213,279.189606 827.863953,278.253876 814.668579,279.903381 
	C787.679932,283.277069 767.163025,296.260620 755.129272,321.111450 
	C747.442444,336.985718 745.689087,353.956177 747.989380,371.279755 
	C751.840332,400.280884 766.522217,421.069519 794.857788,430.736145 
	C809.486511,435.726654 824.624207,435.705933 839.778381,433.548096 
	C847.969299,432.381775 856.074768,430.802582 863.471436,426.411377 
	C862.174133,421.316254 861.084961,416.455200 859.674072,411.689423 
	C858.622620,408.137695 856.295471,407.751556 852.679016,408.583252 
	C844.146057,410.545654 835.498596,412.823944 826.821411,413.194092 
	C799.649658,414.353088 780.124756,400.185120 774.695007,375.075012 
	C772.794739,366.286926 772.695007,356.862976 773.292053,347.829773 
	C774.801880,324.986633 789.120361,307.305573 810.502869,302.737183 
	C819.576416,300.798584 829.287537,301.844391 839.561646,301.756012 
M505.996338,170.442047 
	C507.428864,178.572189 507.942596,187.011658 510.547058,194.747238 
	C513.263550,202.815598 520.880005,204.070816 527.419128,198.592438 
	C529.567627,196.792480 531.561768,194.685410 533.182190,192.403336 
	C536.643555,187.528519 539.757263,182.408554 543.122253,177.463104 
	C545.984436,173.256622 548.999268,169.153976 552.542725,164.166245 
	C554.982971,170.215042 556.887024,175.156525 558.958862,180.026611 
	C564.153076,192.236084 572.825623,201.138931 585.220337,205.846542 
	C587.845703,206.843704 592.102844,206.247253 594.368591,204.638885 
	C596.200439,203.338531 597.245056,199.152939 596.660950,196.722519 
	C596.070190,194.263962 593.412170,191.766876 591.025330,190.372375 
	C582.805298,185.569946 576.810852,179.019455 573.106750,170.265884 
	C571.102051,165.528412 569.105896,160.763901 566.710571,156.220016 
	C561.630371,146.583038 551.920593,144.319168 543.274780,150.904175 
	C539.738403,153.597641 536.581543,156.916534 533.725281,160.345154 
	C529.746765,165.120895 526.212463,170.266708 521.827698,176.138458 
	C521.204468,164.153793 520.271179,153.230072 520.133057,142.296326 
	C519.621582,101.831390 519.386963,61.363003 518.987671,20.896509 
	C518.965149,18.612423 519.108398,15.815712 517.912598,14.180407 
	C516.332092,12.019088 513.531799,9.562741 511.204803,9.510654 
	C509.349854,9.469132 506.444824,12.530615 505.740509,14.762123 
	C504.570343,18.469633 504.443390,22.619549 504.479950,26.577555 
	C504.919952,74.204964 505.470947,121.831352 505.996338,170.442047 
M622.320190,167.604584 
	C627.132202,166.396072 631.888123,164.505936 636.766541,164.104553 
	C652.524292,162.808060 668.334778,162.165421 684.107239,161.026764 
	C688.210999,160.730515 692.402954,159.991669 696.285828,158.668289 
	C703.007690,156.377304 704.585632,149.901596 699.460327,144.960632 
	C696.696289,142.296021 693.004028,139.939255 689.332458,139.000061 
	C680.192993,136.662216 670.884521,134.162247 661.536743,133.637924 
	C643.618042,132.632858 625.624512,132.778717 607.663147,132.831146 
	C602.358765,132.846634 599.745117,136.340714 599.950256,141.285614 
	C600.147522,146.041702 602.774109,148.641052 608.024475,148.887161 
	C612.346375,149.089737 616.683655,148.936768 621.011841,149.039520 
	C626.161072,149.161743 631.307800,149.388824 636.455627,149.570480 
	C632.891968,151.474869 629.298767,152.124603 625.810059,153.134827 
	C622.152466,154.193924 618.523743,155.427673 615.009460,156.890305 
	C608.767517,159.488174 603.230591,163.094589 599.740479,169.147293 
	C593.857056,179.350403 597.645752,188.921432 608.837830,192.142990 
	C610.425903,192.600113 612.067261,192.914398 613.704895,193.150009 
	C628.326660,195.253616 642.599731,192.452408 656.740601,189.474731 
	C667.744873,187.157516 678.680664,184.210892 689.324280,180.594589 
	C696.142151,178.278122 698.148865,173.440186 696.100098,168.748199 
	C694.289368,164.601440 690.198181,163.751617 683.455994,166.125854 
	C683.142944,166.236084 682.849060,166.403137 682.533447,166.503662 
	C661.987732,173.048477 641.075928,177.412170 619.377258,176.957245 
	C617.372803,176.915222 615.377441,176.439209 613.377808,176.164688 
	C613.177124,175.617584 612.976501,175.070465 612.775818,174.523346 
	C615.729431,172.330460 618.683105,170.137558 622.320190,167.604584 
M695.415161,332.499756 
	C695.415161,363.648773 695.409119,394.797791 695.420532,425.946808 
	C695.422729,431.866699 696.491394,432.912201 702.380676,432.931244 
	C705.878723,432.942535 709.376770,432.943665 712.874756,432.930939 
	C718.655701,432.909912 719.923828,431.680420 719.928284,425.975372 
	C719.942139,408.318695 719.933289,390.662048 719.933289,373.005371 
	C719.933289,344.688080 719.939026,316.370789 719.928589,288.053497 
	C719.926453,282.304993 718.684570,281.091766 712.903625,281.069214 
	C709.405640,281.055573 705.907593,281.057892 702.409546,281.068665 
	C696.515076,281.086853 695.427673,282.145508 695.420715,288.024323 
	C695.403625,302.516113 695.415161,317.007904 695.415161,332.499756 
M721.720642,183.980606 
	C722.408081,192.093079 723.004395,200.214752 723.822876,208.313965 
	C724.208008,212.124252 726.312866,214.942291 730.202576,215.699478 
	C734.287170,216.494644 737.532043,214.535141 739.334595,211.067993 
	C740.994446,207.875443 741.810669,204.250031 743.064148,200.839432 
	C746.884705,190.444077 749.890442,179.637222 754.812561,169.789917 
	C759.833557,159.745010 764.130493,159.886444 771.359924,168.265915 
	C777.768555,175.694077 783.821411,183.488373 790.765625,190.381302 
	C800.789307,200.330826 813.074036,205.920731 827.441467,205.982697 
	C834.312866,206.012314 838.332642,201.180481 836.864868,195.006302 
	C835.729309,190.229630 832.148010,188.515762 827.691772,187.929977 
	C815.159607,186.282516 804.692444,181.331161 796.900513,170.739777 
	C791.304443,163.133224 785.010559,155.892761 778.179688,149.378448 
	C769.212158,140.826477 758.970398,140.991653 749.443115,149.019165 
	C746.425415,151.561768 743.885803,154.733231 741.418396,157.847458 
	C739.556824,160.196945 738.158752,162.913620 736.816589,165.049561 
	C734.032227,158.434738 731.695557,151.677689 728.390259,145.433441 
	C725.981934,140.883545 721.320007,140.012360 717.185303,142.109177 
	C713.512085,143.971970 712.209167,148.749542 713.549805,153.444595 
	C716.361389,163.290741 718.903564,173.213791 721.720642,183.980606 
z"/>
<path fill="#030303" opacity="1.000000" stroke="none" 
	d="
M386.674377,24.215805 
	C405.131348,30.372120 418.767975,41.467751 426.808990,59.028702 
	C429.973846,65.940536 430.116455,72.861053 427.176239,79.812813 
	C422.190033,91.602257 413.801056,100.361290 402.697144,106.519188 
	C400.570587,107.698517 398.041962,108.362907 395.616730,108.748131 
	C391.098633,109.465782 387.657867,107.171440 386.853394,103.324554 
	C385.776062,98.172676 387.765594,94.686890 392.496582,93.219238 
	C402.863983,90.003067 408.963654,82.318489 412.710205,72.745163 
	C413.634827,70.382538 412.874268,66.728806 411.668121,64.266266 
	C403.749115,48.098282 389.704163,40.311314 372.728455,37.089409 
	C348.685577,32.526199 324.972839,35.395851 301.499786,41.078659 
	C267.849182,49.225433 235.899170,61.664761 206.476303,80.083817 
	C200.450745,83.855888 194.744690,88.315361 189.514633,93.134415 
	C183.536636,98.642639 183.469864,105.551300 189.510818,111.021950 
	C193.611649,114.735626 198.607346,117.786743 203.690247,120.029594 
	C219.193390,126.870392 235.855087,129.305420 252.448822,131.952759 
	C288.142517,137.647308 324.194733,136.488754 360.117859,137.885239 
	C393.935791,139.199890 427.600464,142.052307 459.914795,153.014862 
	C468.154114,155.810043 476.276611,159.738281 483.501129,164.569122 
	C497.710327,174.070419 500.531372,188.381317 492.279663,203.446350 
	C486.846069,213.366394 478.552765,220.548904 469.345306,226.697159 
	C446.447449,241.987106 421.043610,251.777054 394.866089,259.596375 
	C364.650421,268.621918 333.938293,275.312714 302.177948,274.673431 
	C293.801422,274.504852 285.395111,272.617767 277.147369,270.845367 
	C273.907440,270.149139 270.769897,267.971100 268.101959,265.825806 
	C262.382599,261.226898 261.892456,254.279343 267.378510,249.407913 
	C271.414917,245.823746 276.193848,242.808487 281.097809,240.514420 
	C303.766998,229.909882 327.780579,223.087692 351.970032,217.187286 
	C370.173676,212.746979 388.750580,209.784515 407.233673,206.581573 
	C411.543060,205.834808 416.232635,206.294556 420.590973,207.073624 
	C425.751984,207.996155 427.987610,211.996353 426.845795,216.636703 
	C425.664062,221.439178 422.193329,222.699692 417.070892,222.805527 
	C407.660461,222.999969 398.100037,223.450668 388.907379,225.306580 
	C357.128815,231.722443 325.882996,240.219650 295.440308,251.482239 
	C292.353149,252.624344 289.387543,254.095139 286.391235,256.548187 
	C290.748535,257.022064 295.096985,257.793304 299.464508,257.922729 
	C333.679077,258.936768 366.547913,251.557831 398.885590,241.382706 
	C419.375488,234.935501 439.407410,227.155777 457.294983,215.025330 
	C464.100952,210.409882 470.621979,204.899231 475.925537,198.652664 
	C484.268463,188.826340 482.529053,181.540665 471.446259,175.027008 
	C459.671387,168.106613 446.534088,164.972488 433.372101,162.134720 
	C395.863495,154.047729 357.774078,153.114655 319.593536,152.753876 
	C284.919891,152.426239 250.393509,149.991257 216.673279,141.037476 
	C205.228348,137.998489 194.138290,133.943359 184.470963,126.862701 
	C174.491867,119.553696 168.004105,110.394905 169.866562,97.201065 
	C171.025055,88.994324 175.323456,82.214211 181.643082,77.533470 
	C191.879410,69.951744 202.312347,62.230503 213.688629,56.666687 
	C252.023331,37.918240 292.705994,26.324184 334.889069,20.207287 
	C352.202209,17.696739 369.440674,19.096582 386.674377,24.215805 
z"/>
<path fill="#040404" opacity="1.000000" stroke="none" 
	d="
M625.957520,342.766296 
	C629.426758,342.766296 632.403870,342.766296 636.071899,342.766296 
	C636.071899,340.753967 636.071960,339.000824 636.071960,337.247681 
	C636.071960,320.753540 636.059509,304.259430 636.078979,287.765289 
	C636.085266,282.459717 637.494141,281.104736 642.895996,281.075714 
	C646.561279,281.056030 650.226807,281.060822 653.892090,281.074554 
	C659.671448,281.096191 660.921204,282.315399 660.923340,288.053162 
	C660.933838,316.043213 660.928040,344.033234 660.928040,372.023285 
	C660.928040,390.016907 660.937134,408.010498 660.922791,426.004120 
	C660.918274,431.661896 659.620667,432.906677 653.834778,432.925781 
	C650.169495,432.937897 646.503967,432.945282 642.838745,432.923950 
	C637.493530,432.892853 636.083191,431.510651 636.078491,426.177460 
	C636.061584,407.184204 636.071960,388.190979 636.071960,369.197723 
	C636.071960,367.909882 636.071899,366.622070 636.071899,365.134216 
	C614.254639,365.134216 592.844238,365.134216 570.928101,365.134216 
	C570.928101,373.174347 570.928040,381.113342 570.928040,389.052338 
	C570.928040,401.381287 570.939819,413.710297 570.922607,426.039215 
	C570.914978,431.501099 569.571411,432.885651 564.299500,432.922729 
	C560.467773,432.949707 556.635437,432.952271 552.803711,432.922119 
	C547.585632,432.881042 546.429260,431.611511 546.427979,425.857788 
	C546.419556,387.871307 546.423645,349.884796 546.423645,311.898315 
	C546.423645,303.901154 546.406799,295.903931 546.429443,287.906860 
	C546.445251,282.341492 547.653076,281.106293 553.039001,281.076141 
	C556.870850,281.054657 560.706909,281.182190 564.533875,281.043976 
	C569.255432,280.873444 570.997498,283.132965 570.970398,287.696594 
	C570.866333,305.189758 570.927063,322.683899 570.936462,340.177673 
	C570.936829,340.833801 571.042053,341.489838 571.151733,342.766296 
	C589.271973,342.766296 607.368591,342.766296 625.957520,342.766296 
z"/>
<path fill="#040404" opacity="1.000000" stroke="none" 
	d="
M241.569031,352.574524 
	C237.874207,355.423248 234.432083,358.025391 230.722977,360.829407 
	C242.552460,368.840485 245.901199,381.679962 249.098938,394.719208 
	C251.706619,405.352356 254.764099,415.877014 257.727783,426.420074 
	C258.815125,430.288177 257.157623,432.839417 253.079391,432.910858 
	C248.748032,432.986755 244.373260,432.557159 240.092941,433.030731 
	C235.683838,433.518585 233.727570,431.629822 232.714340,427.717834 
	C229.842361,416.629425 226.878174,405.564850 223.933838,394.495300 
	C223.251068,391.928253 222.650742,389.325806 221.759232,386.830109 
	C217.648148,375.321411 210.827087,370.366333 198.558105,370.019775 
	C193.574768,369.879028 188.584137,369.996552 183.173203,369.996552 
	C183.089447,371.475769 182.939804,372.901825 182.938461,374.327972 
	C182.922226,391.492157 182.934586,408.656311 182.924240,425.820496 
	C182.920746,431.611420 181.658951,432.895538 176.015762,432.925201 
	C173.016266,432.940948 170.016647,432.928162 167.017075,432.927948 
	C158.866333,432.927338 158.424606,432.499603 158.424194,424.569244 
	C158.423035,402.905731 158.423798,381.242188 158.423798,359.578674 
	C158.423798,335.748810 158.500092,311.918396 158.341904,288.089600 
	C158.318054,284.496735 159.356110,283.257874 162.952957,282.771362 
	C182.499039,280.127472 202.005890,278.350891 221.548080,282.713684 
	C259.393127,291.162659 261.237122,334.475159 241.569031,352.574524 
M215.867584,303.389130 
	C205.115005,299.351837 194.169693,299.692688 183.227448,301.551208 
	C183.227448,317.851257 183.227448,333.752380 183.227448,351.197113 
	C193.977768,349.781372 204.512955,349.431702 214.439331,346.792358 
	C224.197922,344.197632 228.910095,336.092529 229.306000,325.962158 
	C229.696503,315.969879 226.167099,308.072571 215.867584,303.389130 
z"/>
<path fill="#030303" opacity="1.000000" stroke="none" 
	d="
M58.507244,432.615784 
	C25.747360,425.310272 7.974777,402.230225 3.935635,370.638245 
	C1.979192,355.335968 3.269987,340.287231 9.224109,326.022583 
	C20.821554,298.237793 42.579754,283.782898 71.861938,279.978302 
	C86.895012,278.025055 101.768616,279.253815 116.272629,283.871643 
	C118.922791,284.715454 121.466698,285.892944 124.380562,287.043060 
	C122.915932,292.028809 121.579430,296.611450 120.222694,301.188080 
	C118.679695,306.393097 117.006912,307.207672 111.965897,305.328796 
	C97.686485,300.006653 83.006401,299.119843 68.257744,302.450775 
	C45.851212,307.511200 30.820158,325.104004 29.275269,348.522980 
	C28.701052,357.227539 28.868019,366.308624 30.705181,374.782623 
	C36.020409,399.299438 54.096989,413.129425 80.586823,413.592621 
	C88.307800,413.727631 96.054291,412.403381 103.883423,411.740051 
	C103.883423,397.923767 103.883423,385.157135 103.883423,371.925079 
	C96.117363,371.925079 88.502670,371.797577 80.895004,371.973724 
	C76.444237,372.076752 74.560661,370.254608 74.599884,365.801788 
	C74.741631,349.708160 72.922104,351.017212 89.283684,351.068390 
	C100.279663,351.102783 111.276031,351.112122 122.271805,351.053925 
	C125.869064,351.034912 128.056015,352.456390 128.060837,356.228973 
	C128.090393,379.380737 128.075653,402.532562 128.075653,426.004608 
	C105.511024,434.110413 82.597870,437.228790 58.507244,432.615784 
z"/>
<path fill="#030303" opacity="1.000000" stroke="none" 
	d="
M308.131195,398.120819 
	C304.305298,409.859131 300.563507,421.209137 296.701508,432.923706 
	C290.262817,432.923706 283.801758,433.042297 277.347961,432.877197 
	C273.741974,432.784973 272.365631,429.858521 273.764618,425.692963 
	C280.209717,406.501862 286.662933,387.313416 293.145752,368.135010 
	C302.443390,340.629364 311.840149,313.156830 320.997437,285.604645 
	C322.207214,281.964630 323.875214,280.741821 327.679779,280.976868 
	C333.652435,281.345795 339.670135,281.226257 345.657623,281.007904 
	C348.447296,280.906189 349.677368,281.775665 350.592133,284.481476 
	C366.534058,331.637665 382.604553,378.750336 398.614319,425.883636 
	C400.169464,430.462036 398.405518,432.864136 393.588959,432.913605 
	C388.593262,432.964905 383.589233,432.761963 378.603363,432.989166 
	C375.808472,433.116516 374.594696,432.237793 373.701202,429.495056 
	C369.126923,415.453461 364.285461,401.498932 359.436493,387.216644 
	C343.786621,387.216644 328.013672,387.216644 311.836853,387.216644 
	C310.681763,390.570618 309.448517,394.151581 308.131195,398.120819 
M351.191345,366.434113 
	C351.680603,365.550659 352.784119,364.464813 352.569458,363.813232 
	C346.948853,346.752563 341.191681,329.736847 335.466095,312.737518 
	C329.634613,330.458008 323.806183,348.169189 317.793579,366.440094 
	C329.021942,366.440094 339.638641,366.440094 351.191345,366.434113 
z"/>
<path fill="#040404" opacity="1.000000" stroke="none" 
	d="
M451.688477,375.399902 
	C447.328796,374.888031 449.024902,377.953369 449.012604,379.379822 
	C448.879028,394.872559 448.936768,410.366882 448.925079,425.860779 
	C448.920685,431.641022 447.670166,432.899475 441.980194,432.926178 
	C438.648224,432.941803 435.316162,432.931824 431.984131,432.928528 
	C425.351074,432.921967 424.426605,432.032379 424.424744,425.541138 
	C424.417816,401.717194 424.422028,377.893219 424.422028,354.069275 
	C424.422028,332.411133 424.422028,310.753021 424.422028,289.094879 
	C424.422028,287.286896 424.422028,285.478912 424.422028,283.325867 
	C444.412079,280.454407 464.065277,278.067596 483.757263,282.201843 
	C505.766296,286.822510 518.138062,301.056824 519.807739,322.807465 
	C521.521606,345.133331 510.289246,363.130157 489.472839,370.999756 
	C477.433258,375.551300 464.898193,376.622711 451.688477,375.399902 
M492.687531,314.081818 
	C489.673157,311.075806 487.126984,307.245483 483.556946,305.217865 
	C472.710388,299.057556 460.876434,300.770264 449.142334,301.586761 
	C449.142334,319.484955 449.142334,336.745972 449.142334,354.850555 
	C455.624878,354.850555 461.944611,355.297089 468.181976,354.769684 
	C489.873871,352.935638 500.856415,335.050323 492.687531,314.081818 
z"/>
<path fill="#030303" opacity="1.000000" stroke="none" 
	d="
M915.017212,413.043274 
	C922.030640,412.638947 928.794861,412.994049 935.138794,411.529358 
	C942.932312,409.730042 948.261169,404.235992 949.699768,396.088623 
	C951.221497,387.470825 949.341980,379.506897 941.655701,374.497498 
	C935.868591,370.725861 929.351074,368.072449 923.149048,364.940430 
	C916.203735,361.433105 908.861633,358.540985 902.377686,354.326630 
	C889.544678,345.985718 883.041260,333.848541 884.312256,318.350708 
	C885.662659,301.886536 894.571533,290.277313 909.568726,284.097656 
	C928.524963,276.286713 947.576782,277.769440 966.273254,285.814758 
	C969.103882,287.032806 969.958252,288.489258 968.702759,291.474854 
	C967.228149,294.981598 966.248962,298.693787 964.976135,302.289001 
	C963.408875,306.715515 961.504150,307.445007 957.023438,305.503967 
	C947.216370,301.255463 937.104858,299.179077 926.387756,301.032806 
	C917.391479,302.588867 910.838928,308.082214 909.233459,315.607666 
	C907.456726,323.935791 910.497131,331.371918 918.822266,336.294495 
	C925.074097,339.991089 931.964600,342.598206 938.522888,345.788696 
	C944.039673,348.472504 949.711792,350.932648 954.923401,354.130188 
	C970.029785,363.398407 976.634766,377.282379 974.838562,394.714081 
	C973.058289,411.990753 963.523987,424.050476 947.323425,430.121124 
	C926.295349,438.000793 905.559814,435.813690 885.281738,426.830566 
	C881.700806,425.244232 880.217041,423.241516 881.941956,419.218872 
	C883.371765,415.884491 884.047180,412.233612 885.180725,408.763397 
	C886.411438,404.995819 888.704285,404.355530 892.465942,405.746735 
	C899.736877,408.435883 907.198853,410.608795 915.017212,413.043274 
z"/>
<path fill="#030303" opacity="1.000000" stroke="none" 
	d="
M839.135254,301.644928 
	C829.287537,301.844391 819.576416,300.798584 810.502869,302.737183 
	C789.120361,307.305573 774.801880,324.986633 773.292053,347.829773 
	C772.695007,356.862976 772.794739,366.286926 774.695007,375.075012 
	C780.124756,400.185120 799.649658,414.353088 826.821411,413.194092 
	C835.498596,412.823944 844.146057,410.545654 852.679016,408.583252 
	C856.295471,407.751556 858.622620,408.137695 859.674072,411.689423 
	C861.084961,416.455200 862.174133,421.316254 863.471436,426.411377 
	C856.074768,430.802582 847.969299,432.381775 839.778381,433.548096 
	C824.624207,435.705933 809.486511,435.726654 794.857788,430.736145 
	C766.522217,421.069519 751.840332,400.280884 747.989380,371.279755 
	C745.689087,353.956177 747.442444,336.985718 755.129272,321.111450 
	C767.163025,296.260620 787.679932,283.277069 814.668579,279.903381 
	C827.863953,278.253876 840.918213,279.189606 853.705811,282.905396 
	C857.016052,283.867249 860.177917,285.339294 863.855347,286.748413 
	C862.190063,292.474030 860.876038,297.913513 858.979919,303.141876 
	C857.955750,305.965881 855.528076,306.534332 852.456177,305.431427 
	C848.259216,303.924438 843.869019,302.955536 839.135254,301.644928 
z"/>
<path fill="#030303" opacity="1.000000" stroke="none" 
	d="
M505.994629,169.950027 
	C505.470947,121.831352 504.919952,74.204964 504.479950,26.577555 
	C504.443390,22.619549 504.570343,18.469633 505.740509,14.762123 
	C506.444824,12.530615 509.349854,9.469132 511.204803,9.510654 
	C513.531799,9.562741 516.332092,12.019088 517.912598,14.180407 
	C519.108398,15.815712 518.965149,18.612423 518.987671,20.896509 
	C519.386963,61.363003 519.621582,101.831390 520.133057,142.296326 
	C520.271179,153.230072 521.204468,164.153793 521.827698,176.138458 
	C526.212463,170.266708 529.746765,165.120895 533.725281,160.345154 
	C536.581543,156.916534 539.738403,153.597641 543.274780,150.904175 
	C551.920593,144.319168 561.630371,146.583038 566.710571,156.220016 
	C569.105896,160.763901 571.102051,165.528412 573.106750,170.265884 
	C576.810852,179.019455 582.805298,185.569946 591.025330,190.372375 
	C593.412170,191.766876 596.070190,194.263962 596.660950,196.722519 
	C597.245056,199.152939 596.200439,203.338531 594.368591,204.638885 
	C592.102844,206.247253 587.845703,206.843704 585.220337,205.846542 
	C572.825623,201.138931 564.153076,192.236084 558.958862,180.026611 
	C556.887024,175.156525 554.982971,170.215042 552.542725,164.166245 
	C548.999268,169.153976 545.984436,173.256622 543.122253,177.463104 
	C539.757263,182.408554 536.643555,187.528519 533.182190,192.403336 
	C531.561768,194.685410 529.567627,196.792480 527.419128,198.592438 
	C520.880005,204.070816 513.263550,202.815598 510.547058,194.747238 
	C507.942596,187.011658 507.428864,178.572189 505.994629,169.950027 
z"/>
<path fill="#030303" opacity="1.000000" stroke="none" 
	d="
M621.978455,167.774628 
	C618.683105,170.137558 615.729431,172.330460 612.775818,174.523346 
	C612.976501,175.070465 613.177124,175.617584 613.377808,176.164688 
	C615.377441,176.439209 617.372803,176.915222 619.377258,176.957245 
	C641.075928,177.412170 661.987732,173.048477 682.533447,166.503662 
	C682.849060,166.403137 683.142944,166.236084 683.455994,166.125854 
	C690.198181,163.751617 694.289368,164.601440 696.100098,168.748199 
	C698.148865,173.440186 696.142151,178.278122 689.324280,180.594589 
	C678.680664,184.210892 667.744873,187.157516 656.740601,189.474731 
	C642.599731,192.452408 628.326660,195.253616 613.704895,193.150009 
	C612.067261,192.914398 610.425903,192.600113 608.837830,192.142990 
	C597.645752,188.921432 593.857056,179.350403 599.740479,169.147293 
	C603.230591,163.094589 608.767517,159.488174 615.009460,156.890305 
	C618.523743,155.427673 622.152466,154.193924 625.810059,153.134827 
	C629.298767,152.124603 632.891968,151.474869 636.455627,149.570480 
	C631.307800,149.388824 626.161072,149.161743 621.011841,149.039520 
	C616.683655,148.936768 612.346375,149.089737 608.024475,148.887161 
	C602.774109,148.641052 600.147522,146.041702 599.950256,141.285614 
	C599.745117,136.340714 602.358765,132.846634 607.663147,132.831146 
	C625.624512,132.778717 643.618042,132.632858 661.536743,133.637924 
	C670.884521,134.162247 680.192993,136.662216 689.332458,139.000061 
	C693.004028,139.939255 696.696289,142.296021 699.460327,144.960632 
	C704.585632,149.901596 703.007690,156.377304 696.285828,158.668289 
	C692.402954,159.991669 688.210999,160.730515 684.107239,161.026764 
	C668.334778,162.165421 652.524292,162.808060 636.766541,164.104553 
	C631.888123,164.505936 627.132202,166.396072 621.978455,167.774628 
z"/>
<path fill="#060606" opacity="1.000000" stroke="none" 
	d="
M695.415161,331.999725 
	C695.415161,317.007904 695.403625,302.516113 695.420715,288.024323 
	C695.427673,282.145508 696.515076,281.086853 702.409546,281.068665 
	C705.907593,281.057892 709.405640,281.055573 712.903625,281.069214 
	C718.684570,281.091766 719.926453,282.304993 719.928589,288.053497 
	C719.939026,316.370789 719.933289,344.688080 719.933289,373.005371 
	C719.933289,390.662048 719.942139,408.318695 719.928284,425.975372 
	C719.923828,431.680420 718.655701,432.909912 712.874756,432.930939 
	C709.376770,432.943665 705.878723,432.942535 702.380676,432.931244 
	C696.491394,432.912201 695.422729,431.866699 695.420532,425.946808 
	C695.409119,394.797791 695.415161,363.648773 695.415161,331.999725 
z"/>
<path fill="#030303" opacity="1.000000" stroke="none" 
	d="
M721.638550,183.542938 
	C718.903564,173.213791 716.361389,163.290741 713.549805,153.444595 
	C712.209167,148.749542 713.512085,143.971970 717.185303,142.109177 
	C721.320007,140.012360 725.981934,140.883545 728.390259,145.433441 
	C731.695557,151.677689 734.032227,158.434738 736.816589,165.049561 
	C738.158752,162.913620 739.556824,160.196945 741.418396,157.847458 
	C743.885803,154.733231 746.425415,151.561768 749.443115,149.019165 
	C758.970398,140.991653 769.212158,140.826477 778.179688,149.378448 
	C785.010559,155.892761 791.304443,163.133224 796.900513,170.739777 
	C804.692444,181.331161 815.159607,186.282516 827.691772,187.929977 
	C832.148010,188.515762 835.729309,190.229630 836.864868,195.006302 
	C838.332642,201.180481 834.312866,206.012314 827.441467,205.982697 
	C813.074036,205.920731 800.789307,200.330826 790.765625,190.381302 
	C783.821411,183.488373 777.768555,175.694077 771.359924,168.265915 
	C764.130493,159.886444 759.833557,159.745010 754.812561,169.789917 
	C749.890442,179.637222 746.884705,190.444077 743.064148,200.839432 
	C741.810669,204.250031 740.994446,207.875443 739.334595,211.067993 
	C737.532043,214.535141 734.287170,216.494644 730.202576,215.699478 
	C726.312866,214.942291 724.208008,212.124252 723.822876,208.313965 
	C723.004395,200.214752 722.408081,192.093079 721.638550,183.542938 
z"/>
<path fill="#FDFDFD" opacity="1.000000" stroke="none" 
	d="
M216.203293,303.576660 
	C226.167099,308.072571 229.696503,315.969879 229.306000,325.962158 
	C228.910095,336.092529 224.197922,344.197632 214.439331,346.792358 
	C204.512955,349.431702 193.977768,349.781372 183.227448,351.197113 
	C183.227448,333.752380 183.227448,317.851257 183.227448,301.551208 
	C194.169693,299.692688 205.115005,299.351837 216.203293,303.576660 
z"/>
<path fill="#FBFBFB" opacity="1.000000" stroke="none" 
	d="
M350.723328,366.437103 
	C339.638641,366.440094 329.021942,366.440094 317.793579,366.440094 
	C323.806183,348.169189 329.634613,330.458008 335.466095,312.737518 
	C341.191681,329.736847 346.948853,346.752563 352.569458,363.813232 
	C352.784119,364.464813 351.680603,365.550659 350.723328,366.437103 
z"/>
<path fill="#FDFDFD" opacity="1.000000" stroke="none" 
	d="
M492.837128,314.438965 
	C500.856415,335.050323 489.873871,352.935638 468.181976,354.769684 
	C461.944611,355.297089 455.624878,354.850555 449.142334,354.850555 
	C449.142334,336.745972 449.142334,319.484955 449.142334,301.586761 
	C460.876434,300.770264 472.710388,299.057556 483.556946,305.217865 
	C487.126984,307.245483 489.673157,311.075806 492.837128,314.438965 
z"/>
</svg>